<svg id="Group_389" data-name="Group 389" xmlns="http://www.w3.org/2000/svg" width="49" height="49" viewBox="0 0 49 49">
  <path id="Union_5" data-name="Union 5" d="M24.5,0A24.5,24.5,0,1,1,0,24.5,24.5,24.5,0,0,1,24.5,0Z" transform="translate(0 0)" fill="#fff" opacity="0.36"/>
  <path id="Icon_awesome-box-open" data-name="Icon awesome-box-open" d="M18.657,12.067a2.125,2.125,0,0,1-1.815-1.026L14.024,6.369,11.21,11.041a2.132,2.132,0,0,1-1.819,1.03,2.016,2.016,0,0,1-.583-.083l-6-1.718v7.8A1.4,1.4,0,0,0,3.865,19.43L13.341,21.8a2.849,2.849,0,0,0,1.359,0l9.485-2.371a1.406,1.406,0,0,0,1.061-1.359v-7.8l-6,1.714A2.016,2.016,0,0,1,18.657,12.067Zm9.318-4.918L25.718,2.643a.716.716,0,0,0-.732-.39l-10.962,1.4,4.019,6.666a.72.72,0,0,0,.811.32l8.674-2.476a.722.722,0,0,0,.447-1.012ZM2.331,2.643.073,7.149A.715.715,0,0,0,.516,8.157L9.19,10.634a.72.72,0,0,0,.811-.32l4.024-6.662L3.058,2.253A.716.716,0,0,0,2.331,2.643Z" transform="translate(10.003 12.753)"/>
</svg>
