<svg xmlns="http://www.w3.org/2000/svg" width="132.142" height="50.563" viewBox="0 0 132.142 50.563">
  <g id="Group_45171" data-name="Group 45171" transform="translate(-117.297 -452.162)">
    <g id="Group_44734" data-name="Group 44734" transform="translate(117.297 452.162)">
      <g id="Group_44735" data-name="Group 44735" transform="translate(0 0)">
        <path id="Union_13" data-name="Union 13" d="M120.73,38.438q-5.594,0-11.189,0-6.393,0-12.787,0c-1.39-.1-2.792-.062-4.172-.272a6.982,6.982,0,0,1-4.476-2.553,7.925,7.925,0,0,1-1.2-5.7,20.916,20.916,0,0,1,.734-3.17c1.273-4.733,2.59-9.455,3.846-14.193,2.644-.02,5.289-.017,7.934-.013q1.829,0,3.658,0c-.626,2.75-1.385,5.473-2.07,8.211a3.665,3.665,0,0,0-.217,1.922,2.157,2.157,0,0,0,1.486,1.715,5.777,5.777,0,0,0,1.911.179c.241,0,.481-.008.72,0,1.165-.007,2.331,0,3.5,0,1.911.006,3.821.012,5.731-.028.27-.83.5-1.673.742-2.512-1.866-.018-3.732-.015-5.6-.012-1.46,0-2.921,0-4.381,0-.246-.025-.558-.073-.672-.325a1.83,1.83,0,0,1,.056-1.185c.651-2.648,1.208-5.318,1.874-7.962q4.547,0,9.094,0,6.869,0,13.738.006c-2.13,7.907-4.312,15.8-6.444,23.706-.207.7-.4,1.408-.556,2.125a3.787,3.787,0,0,1-.826.071C121.018,38.441,120.874,38.438,120.73,38.438Zm-52.4-.223c-2.171-4.835-4.365-9.659-6.536-14.5a13.143,13.143,0,0,0-.8-1.639q-2.118,8.065-4.217,16.135-7.561,0-15.12,0c1.4-5.176,2.844-10.342,4.251-15.517.957-3.384,1.845-6.787,2.814-10.167l39.757.005a4.311,4.311,0,0,1,.435.042,11.244,11.244,0,0,1-4.918,7.7,13.424,13.424,0,0,1-5.658,1.469,29.238,29.238,0,0,1-3.618.055c2.168,4.817,4.375,9.615,6.551,14.429.282.663.642,1.294.876,1.978q-2.813.005-5.628,0Zm-62.243,0a7.082,7.082,0,0,1-4.458-1.68A5.235,5.235,0,0,1,.049,33.178a12.757,12.757,0,0,1,.879-5.543q5.7-.009,11.4,0,3.88,0,7.76,0A2.719,2.719,0,0,0,22.5,26.1a6.133,6.133,0,0,0,.374-1.251c1.028-3.789,2.082-7.57,3.107-11.358a1.353,1.353,0,0,1,1.4-.951q4.314,0,8.628,0,4.865,0,9.729,0Q43.7,20.336,41.653,28.127a14.907,14.907,0,0,1-2.687,5.427,11.941,11.941,0,0,1-4.855,3.781,11.794,11.794,0,0,1-4.172.874q-5.612-.005-11.224,0-3.768,0-7.537,0Q8.634,38.215,6.089,38.212Zm1.8-13.136q-3.084,0-6.169,0C2.987,20.283,4.273,15.5,5.548,10.707c.316-1.076.534-2.18.9-3.238a10.809,10.809,0,0,1,4.28-5.189A12.385,12.385,0,0,1,16.678.5C19.072.47,21.462.349,23.857.343,25.6.246,27.345.26,29.09.219c1.862-.13,3.734-.049,5.6-.179C35.459.033,36.229,0,37,.017a13.446,13.446,0,0,1,6.383,1.947,6.6,6.6,0,0,1,2.875,3.658,12.093,12.093,0,0,1,.424,4.264,10.214,10.214,0,0,1-1.65.065q-8.763,0-17.525.006c-.166,0-.332-.012-.5-.026a3.05,3.05,0,0,0-.954.024,3.817,3.817,0,0,0-2.529,1.713,8.294,8.294,0,0,0-1.026,2.62c-.911,3.6-1.862,7.183-2.769,10.781q-3.633.009-7.267.008ZM49.968,7.645c.6-2.428,1.225-4.851,1.825-7.279.054-.135.072-.41.287-.36,1.869.005,3.739.025,5.608.029C58.825.048,59.962.018,61.1.094c3.448.011,6.9.035,10.345.052.693.012,1.386.011,2.078.01,1.174,0,2.347,0,3.519.06Q79.9.226,82.759.241a15.685,15.685,0,0,1,4.124.226A4.32,4.32,0,0,1,89.87,2.553,7.584,7.584,0,0,1,90.3,6.618a22.5,22.5,0,0,1-.767,3.5h-15.2q-12.464,0-24.929,0A22.718,22.718,0,0,1,49.968,7.645Zm42.447,2.463a13.393,13.393,0,0,1,2.368-6.17,8.022,8.022,0,0,1,4.8-3.2,12.517,12.517,0,0,1,3.059-.246c.229,0,.458,0,.687,0,1.621-.014,3.242-.021,4.863-.033,5.474-.135,10.956-.035,16.43-.174,1.253,0,2.506-.007,3.758-.016s2.506-.017,3.759-.016c-.19,1.078-.535,2.122-.766,3.192-.592,2.216-1.115,4.451-1.694,6.669q-10.6,0-21.2,0Q100.449,10.118,92.414,10.108Z" transform="translate(0)" fill="#fff"/>
        <path id="Path_33592" data-name="Path 33592" d="M-42.645-4.542h-4.988l2.192-6.038h.657L-46.738-5.2h4.33ZM-33.483-6.9A4.039,4.039,0,0,1-34.94-5.047a3.578,3.578,0,0,1-2.126.768,1.852,1.852,0,0,1-1.339-.479,1.659,1.659,0,0,1-.5-1.254,2.556,2.556,0,0,1,.171-.893A3.953,3.953,0,0,1-37.29-8.762a3.578,3.578,0,0,1,2.126-.768,1.852,1.852,0,0,1,1.339.479,1.659,1.659,0,0,1,.5,1.254A2.745,2.745,0,0,1-33.483-6.9Zm-.656,0a2.039,2.039,0,0,0,.118-.669,1.246,1.246,0,0,0-.374-.939,1.385,1.385,0,0,0-1-.361A2.687,2.687,0,0,0-37-8.3,2.934,2.934,0,0,0-38.077-6.9a1.857,1.857,0,0,0-.131.669,1.246,1.246,0,0,0,.374.939,1.385,1.385,0,0,0,1,.361,2.687,2.687,0,0,0,1.6-.578A3.02,3.02,0,0,0-34.14-6.9Zm8.322,1.733a3.581,3.581,0,0,1-1.4,1.752A3.621,3.621,0,0,1-29.3-2.7q-1.746,0-1.825-1.575h.656a1.212,1.212,0,0,0,1.326.919,2.81,2.81,0,0,0,1.575-.518,3.081,3.081,0,0,0,1.089-1.293,3.177,3.177,0,0,1-2.284.893A1.852,1.852,0,0,1-30.1-4.759a1.659,1.659,0,0,1-.5-1.254,2.559,2.559,0,0,1,.17-.893,3.953,3.953,0,0,1,1.442-1.857,3.571,3.571,0,0,1,2.124-.768,1.709,1.709,0,0,1,1.652.89l.229-.628h.657ZM-25.831-6.9a2.039,2.039,0,0,0,.118-.669,1.246,1.246,0,0,0-.374-.939,1.385,1.385,0,0,0-1-.361,2.687,2.687,0,0,0-1.6.578A2.934,2.934,0,0,0-29.769-6.9a1.857,1.857,0,0,0-.131.669,1.246,1.246,0,0,0,.374.939,1.385,1.385,0,0,0,1,.361,2.687,2.687,0,0,0,1.6-.578A3.02,3.02,0,0,0-25.831-6.9Zm5.418-2.888h-.663l.286-.788h.656Zm-1.913,5.25h-.656l1.715-4.725h.66Zm7.3-3.5h-.656a.84.84,0,0,0,.053-.289q0-.538-.578-.538A1.164,1.164,0,0,0-17-8.526a1.016,1.016,0,0,0-.381.755q0,.538.578.538a1.03,1.03,0,0,1,.742.269.926.926,0,0,1,.282.7,1.511,1.511,0,0,1-.092.5,2.3,2.3,0,0,1-.807,1.044,1.977,1.977,0,0,1-1.2.44,1.072,1.072,0,0,1-.761-.269.916.916,0,0,1-.289-.7,1.373,1.373,0,0,1,.105-.512h.656a.84.84,0,0,0-.053.289q0,.538.578.538a1.164,1.164,0,0,0,.788-.348,1.016,1.016,0,0,0,.381-.755q0-.538-.578-.538a1.03,1.03,0,0,1-.742-.269.926.926,0,0,1-.282-.7,1.511,1.511,0,0,1,.092-.5,2.287,2.287,0,0,1,.814-1.044,1.988,1.988,0,0,1,1.194-.44,1.072,1.072,0,0,1,.761.269.915.915,0,0,1,.289.7A1.373,1.373,0,0,1-15.028-8.047Zm4.958-.566-.53,0-1.48,4.072h-.651l1.48-4.071-.521,0,.236-.656h.521l.472-1.311h.651l-.463,1.313h.521Zm4.149-1.18h-.663l.286-.788h.656Zm-1.913,5.25h-.656l1.715-4.725h.66ZM.736-5.855A4.36,4.36,0,0,1-.642-4.713a3.391,3.391,0,0,1-1.6.433,1.852,1.852,0,0,1-1.339-.479,1.659,1.659,0,0,1-.5-1.254A2.556,2.556,0,0,1-3.911-6.9,3.953,3.953,0,0,1-2.467-8.762,3.578,3.578,0,0,1-.34-9.53,1.886,1.886,0,0,1,.953-9.1,1.6,1.6,0,0,1,1.5-7.968H.749A1.211,1.211,0,0,0-.577-8.874a2.687,2.687,0,0,0-1.6.578A2.934,2.934,0,0,0-3.254-6.9a1.857,1.857,0,0,0-.131.669,1.246,1.246,0,0,0,.374.939,1.385,1.385,0,0,0,1,.361,2.784,2.784,0,0,0,2-.919ZM7.509-8.047H6.853a.84.84,0,0,0,.053-.289q0-.538-.578-.538a1.164,1.164,0,0,0-.788.348,1.016,1.016,0,0,0-.381.755q0,.538.578.538a1.03,1.03,0,0,1,.742.269.926.926,0,0,1,.282.7,1.511,1.511,0,0,1-.092.5,2.3,2.3,0,0,1-.807,1.044,1.977,1.977,0,0,1-1.2.44A1.072,1.072,0,0,1,3.9-4.549a.916.916,0,0,1-.289-.7,1.373,1.373,0,0,1,.105-.512h.656a.84.84,0,0,0-.053.289q0,.538.578.538a1.164,1.164,0,0,0,.788-.348,1.016,1.016,0,0,0,.381-.755q0-.538-.578-.538a1.03,1.03,0,0,1-.742-.269.926.926,0,0,1-.282-.7,1.511,1.511,0,0,1,.092-.5A2.287,2.287,0,0,1,5.37-9.09a1.988,1.988,0,0,1,1.194-.44,1.072,1.072,0,0,1,.761.269.915.915,0,0,1,.289.7A1.373,1.373,0,0,1,7.509-8.047Z" transform="translate(111.742 53.017)" fill="#fff" stroke="#fff" stroke-linecap="round" stroke-width="0.5"/>
      </g>
    </g>
  </g>
</svg>
