<svg id="Group_45216" data-name="Group 45216" xmlns="http://www.w3.org/2000/svg" width="107.503" height="43.668" viewBox="0 0 107.503 43.668">
  <path id="Union_7" data-name="Union 7" d="M98.219,31.271q-4.551,0-9.1,0-5.2,0-10.4,0c-1.131-.081-2.272-.051-3.394-.221a5.68,5.68,0,0,1-3.642-2.077,6.447,6.447,0,0,1-.974-4.638,17.017,17.017,0,0,1,.6-2.579c1.036-3.85,2.107-7.692,3.129-11.546,2.151-.016,4.3-.014,6.454-.011l2.976,0c-.509,2.238-1.127,4.452-1.684,6.68A2.982,2.982,0,0,0,82,18.441a1.755,1.755,0,0,0,1.209,1.4,4.7,4.7,0,0,0,1.555.145c.2,0,.392-.007.586,0,.948-.006,1.9,0,2.845,0,1.554.005,3.109.01,4.662-.023.22-.675.408-1.361.6-2.043C91.94,17.9,90.422,17.9,88.9,17.9c-1.188,0-2.376,0-3.564,0-.2-.02-.454-.06-.546-.264a1.489,1.489,0,0,1,.046-.964c.53-2.154.983-4.327,1.525-6.477q3.7,0,7.4,0,5.588,0,11.177.005c-1.733,6.433-3.508,12.854-5.243,19.286-.168.571-.329,1.146-.452,1.729a3.081,3.081,0,0,1-.672.058ZM55.59,31.09c-1.767-3.934-3.551-7.858-5.318-11.793a10.693,10.693,0,0,0-.652-1.334Q47.9,24.524,46.189,31.09q-6.151,0-12.3,0c1.141-4.211,2.314-8.414,3.458-12.624.778-2.753,1.5-5.522,2.289-8.271l32.344,0a3.508,3.508,0,0,1,.354.035,9.148,9.148,0,0,1-4,6.266,10.921,10.921,0,0,1-4.6,1.2,23.787,23.787,0,0,1-2.944.045c1.763,3.919,3.559,7.823,5.33,11.738.23.539.523,1.052.713,1.609q-2.289,0-4.578,0Zm-50.637,0A5.762,5.762,0,0,1,1.327,29.72,4.259,4.259,0,0,1,.04,26.992a10.378,10.378,0,0,1,.715-4.51q4.636-.007,9.272,0,3.157,0,6.313,0A2.212,2.212,0,0,0,18.3,21.229a4.99,4.99,0,0,0,.3-1.018c.836-3.082,1.694-6.159,2.528-9.241a1.1,1.1,0,0,1,1.14-.773q3.509,0,7.019,0,3.958,0,7.915,0-1.654,6.342-3.321,12.68A12.127,12.127,0,0,1,31.7,27.3a9.714,9.714,0,0,1-3.95,3.076,9.6,9.6,0,0,1-3.394.711q-4.566,0-9.131,0l-6.132,0ZM6.421,20.4H1.4C2.43,16.5,3.476,12.607,4.514,8.711c.257-.875.435-1.773.736-2.635A8.793,8.793,0,0,1,8.731,1.854,10.076,10.076,0,0,1,13.568.408C15.516.382,17.46.284,19.409.279,20.825.2,22.246.212,23.666.178,25.181.072,26.7.138,28.219.033,28.847.027,29.474,0,30.1.014A10.939,10.939,0,0,1,35.294,1.6a5.365,5.365,0,0,1,2.339,2.976,9.838,9.838,0,0,1,.345,3.469,8.31,8.31,0,0,1-1.343.053q-7.129,0-14.257.005c-.135,0-.27-.01-.405-.021A2.482,2.482,0,0,0,21.2,8.1a3.105,3.105,0,0,0-2.058,1.394,6.748,6.748,0,0,0-.835,2.132c-.741,2.926-1.515,5.844-2.253,8.77q-2.955.008-5.912.006ZM40.651,6.22c.49-1.975,1-3.947,1.485-5.922.044-.11.058-.334.234-.293,1.521,0,3.041.02,4.562.024.925.01,1.85-.014,2.772.048,2.8.009,5.61.028,8.416.042.564.01,1.127.009,1.691.008.955,0,1.909,0,2.863.048L67.328.2A12.76,12.76,0,0,1,70.683.38a3.514,3.514,0,0,1,2.43,1.7,6.17,6.17,0,0,1,.351,3.307,18.3,18.3,0,0,1-.624,2.847H60.474q-10.14,0-20.281,0A18.481,18.481,0,0,1,40.651,6.22Zm34.532,2A10.9,10.9,0,0,1,77.11,3.2,6.526,6.526,0,0,1,81.017.6,10.183,10.183,0,0,1,83.506.4c.186,0,.373,0,.559,0C85.383.389,86.7.383,88.021.373c4.453-.11,8.913-.028,13.366-.142,1.019,0,2.038-.006,3.058-.013S106.483.2,107.5.206c-.155.877-.435,1.727-.623,2.6-.481,1.8-.907,3.621-1.378,5.426q-8.622,0-17.245,0Q81.72,8.232,75.183,8.223Z" transform="translate(0 0)" fill="#d8232a"/>
  <path id="Path_37496" data-name="Path 37496" d="M-24.991-1.191-25.269,0h-5.117l1.7-7.358h1.621l-1.421,6.167ZM-19.853.176a2.742,2.742,0,0,1-1.9-.6,2.163,2.163,0,0,1-.671-1.7,3.815,3.815,0,0,1,.92-2.629,3.046,3.046,0,0,1,2.39-1.038,2.718,2.718,0,0,1,1.89.605,2.169,2.169,0,0,1,.669,1.694,3.828,3.828,0,0,1-.916,2.629A3.031,3.031,0,0,1-19.853.176Zm.688-4.956a1.391,1.391,0,0,0-1.221.793,3.786,3.786,0,0,0-.469,1.956q0,1.2,1.06,1.2a1.374,1.374,0,0,0,1.216-.789,3.813,3.813,0,0,0,.459-1.946Q-18.119-4.78-19.164-4.78Zm11.29-.835L-9.006-.649a3.609,3.609,0,0,1-1.135,2.078,3.585,3.585,0,0,1-2.317.662,9.519,9.519,0,0,1-2.026-.254l.273-1.187h.073a4.283,4.283,0,0,0,1.621.376A2.341,2.341,0,0,0-11.223.718,1.887,1.887,0,0,0-10.549-.5l.107-.474a4.9,4.9,0,0,1-1.052.7,2.232,2.232,0,0,1-.911.193,1.461,1.461,0,0,1-1.208-.547,2.372,2.372,0,0,1-.437-1.519,3.9,3.9,0,0,1,.872-2.561,2.662,2.662,0,0,1,2.126-1.057,2.775,2.775,0,0,1,1.577.508l.161-.352ZM-9.607-4.6a2.432,2.432,0,0,0-.928-.186,1.7,1.7,0,0,0-1.423.669,2.77,2.77,0,0,0-.515,1.738q0,1.143.933,1.143a2.636,2.636,0,0,0,1.265-.444ZM-2.35-7.686l-.308,1.323H-4.274l.308-1.323Zm-.532,2.07L-4.181,0H-5.69l1.3-5.615Zm7.54.327L4.375-4.033H4.331A2.811,2.811,0,0,0,2.52-4.8a1.572,1.572,0,0,0-.84.2.594.594,0,0,0-.322.518q0,.4.728.61A8.022,8.022,0,0,1,3.5-3.03a1.373,1.373,0,0,1,.532.452,1.114,1.114,0,0,1,.183.635A1.816,1.816,0,0,1,3.438-.432,3.258,3.258,0,0,1,1.416.156,4.885,4.885,0,0,1-.952-.4l.3-1.318H-.6A2.91,2.91,0,0,0,1.5-.806a1.559,1.559,0,0,0,.808-.186.568.568,0,0,0,.31-.508q0-.381-.688-.571Q1.4-2.207.881-2.371a1.738,1.738,0,0,1-.808-.5A1.22,1.22,0,0,1-.22-3.7,1.8,1.8,0,0,1,.537-5.186a3.14,3.14,0,0,1,1.978-.586A4.629,4.629,0,0,1,4.658-5.288Zm6.652-.327-.234.962h-1.7L8.834-2.29a3.671,3.671,0,0,0-.112.776q0,.654.767.654a1.845,1.845,0,0,0,.728-.166h.044l-.239.991A5.65,5.65,0,0,1,8.746.112q-1.621,0-1.621-1.2a3.313,3.313,0,0,1,.093-.732l.649-2.832H7.116l.234-.962H8.1l.371-1.6h1.5L9.6-5.615Zm4.884-2.07-.308,1.323H14.27l.308-1.323Zm-.532,2.07L14.363,0H12.854l1.3-5.615Zm7.755.381-.293,1.313h-.078a2.553,2.553,0,0,0-.813-.664,1.851,1.851,0,0,0-.735-.151,1.63,1.63,0,0,0-1.372.715,2.885,2.885,0,0,0-.527,1.76,1.378,1.378,0,0,0,.361,1.023,1.386,1.386,0,0,0,1.021.359,2.993,2.993,0,0,0,1.66-.674h.073l-.3,1.348a4.663,4.663,0,0,1-1.626.356,3.064,3.064,0,0,1-2.031-.623,2.148,2.148,0,0,1-.742-1.741,3.47,3.47,0,0,1,.994-2.568,3.4,3.4,0,0,1,2.5-.991A3.627,3.627,0,0,1,23.417-5.234Zm7.15-.054-.283,1.255H30.24A2.811,2.811,0,0,0,28.428-4.8a1.572,1.572,0,0,0-.84.2.594.594,0,0,0-.322.518q0,.4.728.61a8.022,8.022,0,0,1,1.414.447,1.373,1.373,0,0,1,.532.452,1.114,1.114,0,0,1,.183.635,1.816,1.816,0,0,1-.776,1.511,3.258,3.258,0,0,1-2.021.588A4.885,4.885,0,0,1,24.956-.4l.3-1.318h.059a2.91,2.91,0,0,0,2.095.908,1.559,1.559,0,0,0,.808-.186.568.568,0,0,0,.31-.508q0-.381-.688-.571-.532-.137-1.047-.3a1.738,1.738,0,0,1-.808-.5,1.22,1.22,0,0,1-.293-.83,1.8,1.8,0,0,1,.757-1.484,3.14,3.14,0,0,1,1.978-.586A4.629,4.629,0,0,1,30.567-5.288Z" transform="translate(68.056 41.329)" stroke="#000" stroke-linecap="round" stroke-width="0.5"/>
</svg>
